<svg xmlns="http://www.w3.org/2000/svg" width="32.857" height="23" viewBox="0 0 32.857 23"><path d="M9.857 11.5a5.75 5.75 0 10-5.75-5.75 5.747 5.747 0 005.75 5.75zm3.943 1.643h-.426a7.939 7.939 0 01-7.033 0h-.427A5.916 5.916 0 000 19.057v1.479A2.465 2.465 0 002.464 23H17.25a2.465 2.465 0 002.464-2.464v-1.479a5.916 5.916 0 00-5.914-5.914z" fill="#D8DADD"/><path d="M24.642 11.5a4.929 4.929 0 10-4.929-4.929 4.93 4.93 0 004.929 4.929zm2.465 1.643h-.2a6.474 6.474 0 01-4.538 0h-.2a5.7 5.7 0 00-2.86.791 7.513 7.513 0 012.051 5.123v1.971c0 .113-.026.221-.031.329h9.067a2.465 2.465 0 002.464-2.464 5.747 5.747 0 00-5.753-5.75z" fill="#D8DADD"/></svg>
