<svg xmlns="http://www.w3.org/2000/svg" width="37.601" height="32" viewBox="0 0 37.601 32"><defs><filter id="a" x="0" y="0" width="37.601" height="32" filterUnits="userSpaceOnUse"><feOffset dy="1"/><feGaussianBlur stdDeviation="3" result="blur"/><feFlood flood-opacity=".302"/><feComposite operator="in" in2="blur"/><feComposite in="SourceGraphic"/></filter></defs><g filter="url(#a)"><path d="M10.866 22A1.869 1.869 0 019 20.134V9.866A1.869 1.869 0 0110.866 8h10.268A1.869 1.869 0 0123 9.866v10.268A1.869 1.869 0 0121.134 22zm.934-7a4.2 4.2 0 104.2-4.2 4.2 4.2 0 00-4.2 4.2zm12.6 4.2a.467.467 0 01-.467-.467v-7.466a.466.466 0 01.467-.467l3.733-.934a.467.467 0 01.467.467v9.333a.467.467 0 01-.467.467zM13.2 15a2.8 2.8 0 112.8 2.8 2.8 2.8 0 01-2.8-2.8z" fill="#fff"/></g></svg>
