<svg xmlns="http://www.w3.org/2000/svg" width="31.766" height="34" viewBox="0 0 31.766 34"><defs><filter id="a" x="0" y="0" width="31.766" height="34" filterUnits="userSpaceOnUse"><feOffset dy="1"/><feGaussianBlur stdDeviation="3" result="blur"/><feFlood flood-opacity=".302"/><feComposite operator="in" in2="blur"/><feComposite in="SourceGraphic"/></filter></defs><g filter="url(#a)"><path d="M18.464 24.003H13.3a4.307 4.307 0 01-4.3-4.3v-5.164a4.307 4.307 0 014.3-4.3h.54l-.457-.791A.862.862 0 0113.7 8.27l.263-.152a.86.86 0 011.175.315l.819 1.419.819-1.419a.86.86 0 011.175-.315l.263.152a.862.862 0 01.315 1.175l-.457.791h.392a4.307 4.307 0 014.3 4.3v5.163a4.307 4.307 0 01-4.3 4.304zM15.1 17.329l.308 1.149a.43.43 0 00.527.3l.213-.057h.024l3.471-.93a.43.43 0 00.3-.527l-.2-.733a.43.43 0 00-.527-.3l-2.559.686-.299-1.157a.43.43 0 00-.527-.3l-.23.062h-.007l-3.471.93a.43.43 0 00-.3.527l.2.733a.43.43 0 00.527.3l2.55-.683z" fill="#fff"/></g></svg>
